<svg width="215" height="215" viewBox="0 0 215 215" fill="none" xmlns="http://www.w3.org/2000/svg">
<path d="M92.6772 112.556C86.7664 106.32 79.0047 102.167 70.5488 100.715L92.6772 112.556ZM70.5488 100.475C74.2305 100.017 77.8142 98.9655 81.162 97.3621C84.6903 95.9027 87.8631 93.6973 90.4639 90.8961C93.0648 88.0949 95.0324 84.764 96.2326 81.1306C97.0488 78.6112 97.6176 76.0178 97.9307 73.3874C98.9079 62.8176 99.3418 52.2043 99.2308 41.5898C99.2308 28.4716 100.611 22.0854 78.376 24.9858C65.3219 26.6888 52.2412 28.3385 41.7607 33.8732C25.5757 42.3614 21.2508 47.6034 22.2326 67.4802C23.002 84.643 41.2566 126.446 60.2541 151.298C71.7737 166.549 85.8732 179.653 101.911 190.014V155.423C101.911 140.069 102.892 123.173 92.6772 112.556L70.5488 100.475ZM49.3226 89.8317C49.001 89.2493 48.743 88.6337 48.5531 87.9957C46.1157 78.0918 44.702 67.9624 44.3344 57.768C44.3344 54.362 45.4488 52.9518 49.0838 51.302C56.1844 47.863 63.8225 45.6757 71.6632 44.836C77.7923 44.4369 78.5618 46.1665 78.6148 49.4394C78.7475 55.2401 79.8619 74.3986 78.0046 78.7092C77.3902 80.2807 76.4906 81.7242 75.3513 82.9666C73.7204 84.7274 71.8219 86.2182 69.7263 87.3837C64.6457 89.8521 59.1042 91.2211 53.4617 91.4017C52.6946 91.5468 51.9021 91.4686 51.178 91.1762C50.4539 90.8839 49.8284 90.3896 49.3756 89.7519L49.3226 89.8317ZM88.83 164.071V167.131C77.584 153.451 68.239 138.306 61.0501 122.108C59.0071 117.452 57.0171 112.609 55.1333 107.58C59.3992 108.089 63.5459 109.331 67.3914 111.252C84.9296 119.368 89.7586 142.225 88.83 164.071Z" fill="black"/>
<path d="M170.578 32.729C170.005 32.5395 169.394 32.4939 168.8 32.596C168.208 32.7649 167.684 33.1173 167.303 33.6029C166.923 34.0885 166.705 34.6823 166.682 35.2993C166.658 35.9164 166.83 36.5252 167.172 37.0385C167.515 37.5518 168.01 37.9434 168.588 38.1572C171.904 39.3812 171.639 41.3503 171.612 43.3194V59.2847C171.477 65.5592 170.686 71.8022 169.251 77.911C168.512 80.7016 166.984 83.2186 164.851 85.1588C162.719 87.099 160.073 88.3799 157.232 88.8472C154.063 89.7018 150.697 89.4291 147.706 88.0756C143.622 86.5236 140.194 83.6115 137.995 79.8268C136.111 76.0483 136.43 69.1832 136.456 64.3936C136.456 53.9629 136.642 39.5143 136.616 36.5607C136.616 35.2568 136.244 30.7599 140.861 30.8664C141.557 30.9334 142.251 30.7222 142.793 30.2788C143.334 29.8353 143.679 29.1954 143.753 28.4982C143.766 28.4011 143.766 28.3026 143.753 28.2055C143.753 25.9437 142.4 25.8905 140.702 25.6776C136.318 24.9054 131.884 24.4607 127.435 24.3472H126.188C115.575 25.039 116.424 31.1857 116.424 41.5632C116.282 52.2225 116.716 62.8817 117.724 73.4939C118.058 76.0772 118.626 78.6245 119.422 81.104C123.588 94.0626 136.271 97.6814 141.047 98.7458L140.649 107.34C139.826 125.967 138.446 146.349 129.054 163.672C124.226 172.917 118.55 181.692 112.099 189.881C116 188.444 120.457 185.012 127.196 179.557C147.786 162.873 156.595 140.016 160.946 115.696C161.105 114.844 161.265 113.966 161.397 113.035C161.53 112.103 162.75 103.988 162.963 101.114C178.591 98.6659 189.495 93.1313 193.051 67.5601C195.227 51.8874 193.9 47.7098 187.134 40.3924C182.411 35.5495 170.578 32.729 170.578 32.729Z" fill="black"/>
<path d="M214.463 53.2179C213.983 49.9737 213.193 46.7835 212.101 43.6919C211.009 40.5906 209.632 37.5976 207.989 34.7513C204.718 29.047 200.406 24.0102 195.279 19.9035C192.719 17.8884 189.984 16.1074 187.107 14.5817C184.219 12.9929 181.19 11.6746 178.06 10.6436C172.488 8.9406 166.624 7.37067 160.84 6.04023C155.056 4.70978 149.165 3.59221 143.302 2.66089C137.438 1.72958 131.468 1.11758 125.498 0.665223C119.528 0.212871 113.532 0 107.535 0C101.539 0 95.5425 0.212871 89.5992 0.665223C83.6558 1.11758 77.6859 1.7828 71.7956 2.66089C65.9053 3.53899 60.0681 4.68317 54.2574 6.01362C48.4468 7.34406 42.7157 8.9406 37.0111 10.6436C30.7749 12.6204 24.9427 15.7026 19.7913 19.7438C14.7024 23.8898 10.3976 28.9189 7.08207 34.5916C5.4582 37.4443 4.09078 40.4363 2.99601 43.5322C1.88354 46.6739 1.08366 49.9182 0.60806 53.2179C0.122245 56.44 -0.073119 59.6994 0.0243376 62.9567C0.15596 66.2436 0.582204 69.5119 1.29791 72.7222C2.58918 78.5584 4.11924 84.3237 5.88809 90.018C7.65695 95.7123 9.61153 101.345 11.7518 106.915C13.9275 112.476 16.3155 117.984 18.9157 123.386C21.5159 128.787 24.2223 134.029 27.3266 139.351L28.0961 140.681C31.8637 146.828 35.6049 152.815 39.8236 158.616C44.0423 164.417 48.8978 170.776 53.8329 176.47C58.768 182.165 64.0215 187.673 69.4873 192.888C74.9531 198.103 80.6841 203.053 86.6806 207.763C88.1742 208.91 89.7531 209.942 91.4034 210.849C94.7109 212.661 98.2986 213.902 102.017 214.521C105.731 215.16 109.526 215.16 113.24 214.521C115.105 214.208 116.941 213.745 118.732 213.138C120.51 212.523 122.232 211.757 123.88 210.849C125.536 209.952 127.115 208.92 128.602 207.763C134.599 203.062 140.33 198.103 145.796 192.888C151.261 187.673 156.48 182.2 161.45 176.47C166.403 170.758 171.081 164.798 175.486 158.589C179.89 152.389 184.003 145.95 187.824 139.324C190.822 134.003 193.608 128.681 196.235 123.359C198.861 118.037 201.223 112.449 203.372 106.888C205.521 101.327 207.511 95.7123 209.262 89.9914C211.013 84.2705 212.526 78.523 213.852 72.6956C214.52 69.4909 214.884 66.2301 214.94 62.9567C215.1 59.7026 214.94 56.4406 214.463 53.2179ZM205.097 70.7798C203.85 76.3942 202.443 81.9289 200.692 87.4103C198.941 92.8918 197.137 98.453 195.014 103.775C192.891 109.097 190.636 114.418 188.142 119.74C185.648 125.062 182.836 130.091 180.05 135.067C176.362 141.506 172.382 147.68 168.163 153.693C163.957 159.659 159.449 165.405 154.658 170.909C149.908 176.391 144.867 181.553 139.614 186.715C134.337 191.753 128.811 196.522 123.057 201.004C121.978 201.861 120.824 202.618 119.608 203.266C118.375 203.932 117.088 204.493 115.761 204.942C114.444 205.418 113.084 205.766 111.701 205.98C108.942 206.432 106.129 206.432 103.37 205.98C101.992 205.752 100.641 205.386 99.3367 204.889C98.0173 204.387 96.7471 203.763 95.5425 203.026C94.3238 202.369 93.1613 201.613 92.0667 200.764C86.3356 196.276 80.8256 191.513 75.5368 186.475C70.2302 181.446 65.2155 176.178 60.4661 170.67C55.7168 165.162 51.2062 159.441 46.9609 153.454C42.7157 147.467 39.0011 141.533 35.2865 135.28L35.0742 134.907C32.1821 129.905 29.5023 124.769 27.1144 119.581C24.7264 114.392 22.153 109.097 20.0569 103.775C17.9608 98.453 16.0767 92.9716 14.3786 87.4902C12.6805 82.0087 11.2477 76.3676 9.97415 70.7531C9.39168 68.1287 9.04536 65.4571 8.93937 62.7705C8.76521 57.3433 9.59279 51.9306 11.3804 46.8051C12.2835 44.2314 13.4203 41.7464 14.7766 39.3812C16.1372 37.0105 17.7185 34.7742 19.4994 32.7024C21.2712 30.6409 23.2249 28.744 25.3367 27.0347C27.4499 25.3466 29.715 23.859 32.1025 22.591C34.5242 21.3119 37.0548 20.2522 39.6644 19.4245C45.1027 17.6491 50.6289 16.157 56.2209 14.9542C61.7928 13.677 67.4177 12.586 73.1223 11.7345C78.8268 10.8831 84.5049 10.005 90.236 9.57921C95.9671 9.15347 101.725 8.9406 107.535 8.9406C113.346 8.9406 119.13 9.15347 124.835 9.57921C130.539 10.005 136.297 10.6436 141.975 11.5217C147.653 12.3998 153.305 13.4641 158.876 14.7413C164.448 16.0186 169.967 17.4022 175.433 19.2116C178.087 20.0109 180.656 21.0715 183.101 22.3781C185.497 23.6459 187.771 25.1335 189.893 26.8218C194.162 30.2431 197.761 34.4296 200.506 39.1683C201.863 41.5335 202.999 44.0186 203.903 46.5922C205.69 51.7177 206.518 57.1304 206.344 62.5576C206.212 65.3219 205.812 68.0667 205.15 70.7531L205.097 70.7798Z" fill="black"/>
<path d="M116.265 109.23L118.6 106.861C119.429 106.047 120.079 105.068 120.51 103.988C121.358 101.898 121.358 99.5584 120.51 97.4685C120.079 96.388 119.429 95.4093 118.6 94.5947L116.265 92.2265L113.903 89.8849C113.102 89.047 112.123 88.4013 111.038 87.9957C108.954 87.1453 106.621 87.1453 104.537 87.9957C103.461 88.418 102.485 89.0615 101.672 89.8849L96.9755 94.5947C95.3666 96.2283 94.4643 98.432 94.4643 100.728C94.4643 103.024 95.3666 105.228 96.9755 106.861L101.672 111.571C102.485 112.395 103.461 113.038 104.537 113.46C106.621 114.311 108.954 114.311 111.038 113.46C112.123 113.055 113.102 112.409 113.903 111.571L116.265 109.23Z" fill="#FF5100"/>
</svg>
